<?xml version="1.0" encoding="UTF-8"?>
<!-- Generator: Adobe Illustrator 19.2.1, SVG Export Plug-In . SVG Version: 6.00 Build 0)  -->
<svg version="1.0" id="Ebene_1" xmlns="http://www.w3.org/2000/svg" xmlns:xlink="http://www.w3.org/1999/xlink" x="0px" y="0px" viewBox="0 0 42.5 42.5" style="enable-background:new 0 0 42.5 42.5;" xml:space="preserve">
<style type="text/css">
	.st3{clip-path:url(#SVGID_2_);fill:#E95014;}
</style>
<g>
	<defs>
		<rect id="SVGID_3_" x="1.3" y="1.3" width="40" height="40"/>
	</defs>
	<clipPath id="SVGID_2_">
		<use xlink:href="#SVGID_3_" style="overflow:visible;"/>
	</clipPath>
	<path class="st3" d="M21.3,41.3c11,0,20-9,20-20s-9-20-20-20s-20,9-20,20S10.2,41.3,21.3,41.3"/>
	<path style="clip-path:url(#SVGID_2_);fill:#FFFFFF;" d="M30.8,18.2l-8.5,4.4c-0.3,0.1-0.6,0.2-1,0.2c-0.4,0-0.8-0.1-1-0.2   l-8.5-4.4c-0.3-0.2-0.4-0.1-0.4,0.2v8.2c0,0.2,0.1,0.5,0.4,0.7s0.5,0.4,0.7,0.4h17.8c0.2,0,0.5-0.1,0.7-0.4   c0.3-0.2,0.4-0.5,0.4-0.7v-8.2C31.3,18.1,31.1,18.1,30.8,18.2 M11.9,16c0.1,0.1,0.8,0.4,2.1,1.1c1.3,0.7,2.7,1.4,4,2.2   c1.4,0.7,2.1,1.1,2.1,1.2c0.3,0.1,0.6,0.2,1,0.2c0.4,0,0.8-0.1,1-0.2c0.1,0,0.8-0.4,2.1-1.2c1.4-0.7,2.7-1.5,4-2.2   c1.3-0.7,2-1.1,2.1-1.1c0.2-0.1,0.4-0.3,0.5-0.5c0.3-0.5,0.1-0.7-0.4-0.7H11.9c-0.4,0-0.5,0.1-0.6,0.3C11.2,15.4,11.4,15.7,11.9,16   "/>
</g>
</svg>